STARTFONT 2.1
FONT --Courier-Regular-R-Medium--10-140-96-96-C-60-IBM-UGL
SIZE 14 96 96
FONTBOUNDINGBOX 6 10 0 -2
STARTPROPERTIES 29
FONT_ASCENT 8
FONT_DESCENT 2
PIXEL_SIZE 10
RESOLUTION_X 96
RESOLUTION_Y 96
POINT_SIZE 140
FACE_NAME "System"
FOUNDRY ""
FAMILY_NAME "Courier"
WEIGHT_NAME "Regular"
RELATIVE_WEIGHT 50
SLANT "R"
SPACING "C"
SETWIDTH_NAME "Medium"
RELATIVE_SETWIDTH 50
ADD_STYLE_NAME ""
AVERAGE_WIDTH 60
UNDERLINE_POSITION 1
SUPERSCRIPT_SIZE 9
SUBSCRIPT_SIZE 9
SUPERSCRIPT_X 0
SUPERSCRIPT_Y 5
SUBSCRIPT_X 0
SUBSCRIPT_Y 1
STRIKEOUT_ASCENT 3
STRIKEOUT_DESCENT -2
DEFAULT_CHAR 32
CHARSET_REGISTRY "IBM"
CHARSET_ENCODING "UGL"
ENDPROPERTIES
CHARS 330
STARTCHAR smileface
ENCODING 1
SWIDTH 321 0
DWIDTH 6 0
BBX 6 10 0 -2
BITMAP 
70
88
D8
88
D8
A8
88
70
00
00
ENDCHAR
STARTCHAR invsmileface
ENCODING 2
SWIDTH 321 0
DWIDTH 6 0
BBX 6 10 0 -2
BITMAP 
70
F8
A8
F8
F8
A8
D8
70
00
00
ENDCHAR
STARTCHAR heart
ENCODING 3
SWIDTH 321 0
DWIDTH 6 0
BBX 6 10 0 -2
BITMAP 
50
F8
F8
70
70
70
20
20
00
00
ENDCHAR
STARTCHAR diamond
ENCODING 4
SWIDTH 321 0
DWIDTH 6 0
BBX 6 10 0 -2
BITMAP 
20
70
70
F8
70
70
20
20
00
00
ENDCHAR
STARTCHAR club
ENCODING 5
SWIDTH 321 0
DWIDTH 6 0
BBX 6 10 0 -2
BITMAP 
20
70
20
F8
F8
F8
20
70
00
00
ENDCHAR
STARTCHAR spade
ENCODING 6
SWIDTH 321 0
DWIDTH 6 0
BBX 6 10 0 -2
BITMAP 
20
70
70
F8
F8
F8
20
70
00
00
ENDCHAR
STARTCHAR bullet
ENCODING 7
SWIDTH 321 0
DWIDTH 6 0
BBX 6 10 0 -2
BITMAP 
00
00
30
78
78
78
30
00
00
00
ENDCHAR
STARTCHAR invbullet
ENCODING 8
SWIDTH 321 0
DWIDTH 6 0
BBX 6 10 0 -2
BITMAP 
FC
FC
CC
84
84
84
CC
FC
FC
FC
ENDCHAR
STARTCHAR circle
ENCODING 9
SWIDTH 321 0
DWIDTH 6 0
BBX 6 10 0 -2
BITMAP 
00
00
30
48
48
48
48
30
00
00
ENDCHAR
STARTCHAR invcircle
ENCODING 10
SWIDTH 321 0
DWIDTH 6 0
BBX 6 10 0 -2
BITMAP 
FC
FC
CC
B4
B4
B4
B4
CC
FC
FC
ENDCHAR
STARTCHAR male
ENCODING 11
SWIDTH 321 0
DWIDTH 6 0
BBX 6 10 0 -2
BITMAP 
38
18
28
60
90
90
90
60
00
00
ENDCHAR
STARTCHAR female
ENCODING 12
SWIDTH 321 0
DWIDTH 6 0
BBX 6 10 0 -2
BITMAP 
30
48
48
30
20
20
70
20
00
00
ENDCHAR
STARTCHAR musicalnote
ENCODING 13
SWIDTH 321 0
DWIDTH 6 0
BBX 6 10 0 -2
BITMAP 
20
30
38
28
28
28
E0
C0
00
00
ENDCHAR
STARTCHAR musicalnotedbl
ENCODING 14
SWIDTH 321 0
DWIDTH 6 0
BBX 6 10 0 -2
BITMAP 
70
48
78
48
48
48
C8
D8
18
00
ENDCHAR
STARTCHAR sun
ENCODING 15
SWIDTH 321 0
DWIDTH 6 0
BBX 6 10 0 -2
BITMAP 
00
00
A8
70
50
50
70
A8
00
00
ENDCHAR
STARTCHAR triagrt
ENCODING 16
SWIDTH 321 0
DWIDTH 6 0
BBX 6 10 0 -2
BITMAP 
00
40
60
70
70
60
40
00
00
00
ENDCHAR
STARTCHAR triaglf
ENCODING 17
SWIDTH 321 0
DWIDTH 6 0
BBX 6 10 0 -2
BITMAP 
00
10
30
70
70
30
10
00
00
00
ENDCHAR
STARTCHAR arrowupdn
ENCODING 18
SWIDTH 321 0
DWIDTH 6 0
BBX 6 10 0 -2
BITMAP 
20
70
A8
20
20
A8
70
20
00
00
ENDCHAR
STARTCHAR exclamdbl
ENCODING 19
SWIDTH 321 0
DWIDTH 6 0
BBX 6 10 0 -2
BITMAP 
48
48
48
48
48
48
00
48
00
00
ENDCHAR
STARTCHAR char14
ENCODING 20
SWIDTH 321 0
DWIDTH 6 0
BBX 6 10 0 -2
BITMAP 
78
E8
E8
68
28
28
28
28
28
00
ENDCHAR
STARTCHAR char15
ENCODING 21
SWIDTH 321 0
DWIDTH 6 0
BBX 6 10 0 -2
BITMAP 
70
40
E0
90
50
48
38
10
70
00
ENDCHAR
STARTCHAR filledrect
ENCODING 22
SWIDTH 321 0
DWIDTH 6 0
BBX 6 10 0 -2
BITMAP 
00
00
00
00
F8
F8
00
00
00
00
ENDCHAR
STARTCHAR arrowupdnbse
ENCODING 23
SWIDTH 321 0
DWIDTH 6 0
BBX 6 10 0 -2
BITMAP 
20
70
A8
20
20
A8
70
20
00
F8
ENDCHAR
STARTCHAR arrowup
ENCODING 24
SWIDTH 321 0
DWIDTH 6 0
BBX 6 10 0 -2
BITMAP 
20
70
A8
20
20
20
20
20
00
00
ENDCHAR
STARTCHAR arrowdown
ENCODING 25
SWIDTH 321 0
DWIDTH 6 0
BBX 6 10 0 -2
BITMAP 
20
20
20
20
20
A8
70
20
00
00
ENDCHAR
STARTCHAR arrowright
ENCODING 26
SWIDTH 321 0
DWIDTH 6 0
BBX 6 10 0 -2
BITMAP 
00
30
18
FC
18
30
00
00
00
00
ENDCHAR
STARTCHAR arrowleft
ENCODING 27
SWIDTH 321 0
DWIDTH 6 0
BBX 6 10 0 -2
BITMAP 
00
30
60
FC
60
30
00
00
00
00
ENDCHAR
STARTCHAR orthogonal
ENCODING 28
SWIDTH 321 0
DWIDTH 6 0
BBX 6 10 0 -2
BITMAP 
00
00
00
00
80
80
80
F0
00
00
ENDCHAR
STARTCHAR arrowboth
ENCODING 29
SWIDTH 321 0
DWIDTH 6 0
BBX 6 10 0 -2
BITMAP 
00
30
48
FC
48
30
00
00
00
00
ENDCHAR
STARTCHAR triagup
ENCODING 30
SWIDTH 321 0
DWIDTH 6 0
BBX 6 10 0 -2
BITMAP 
00
20
20
70
70
F8
00
00
00
00
ENDCHAR
STARTCHAR triagdn
ENCODING 31
SWIDTH 321 0
DWIDTH 6 0
BBX 6 10 0 -2
BITMAP 
00
F8
70
70
20
20
00
00
00
00
ENDCHAR
STARTCHAR space
ENCODING 32
SWIDTH 321 0
DWIDTH 6 0
BBX 6 10 0 -2
BITMAP 
00
00
00
00
00
00
00
00
00
00
ENDCHAR
STARTCHAR exclam
ENCODING 33
SWIDTH 321 0
DWIDTH 6 0
BBX 6 10 0 -2
BITMAP 
40
40
40
40
40
40
00
40
00
00
ENDCHAR
STARTCHAR quotedbl
ENCODING 34
SWIDTH 321 0
DWIDTH 6 0
BBX 6 10 0 -2
BITMAP 
50
50
00
00
00
00
00
00
00
00
ENDCHAR
STARTCHAR numbersign
ENCODING 35
SWIDTH 321 0
DWIDTH 6 0
BBX 6 10 0 -2
BITMAP 
50
50
F8
50
F8
50
50
00
00
00
ENDCHAR
STARTCHAR dollar
ENCODING 36
SWIDTH 321 0
DWIDTH 6 0
BBX 6 10 0 -2
BITMAP 
20
78
A0
70
28
28
F0
20
00
00
ENDCHAR
STARTCHAR percent
ENCODING 37
SWIDTH 321 0
DWIDTH 6 0
BBX 6 10 0 -2
BITMAP 
48
A8
50
20
20
50
A8
90
00
00
ENDCHAR
STARTCHAR ampersand
ENCODING 38
SWIDTH 321 0
DWIDTH 6 0
BBX 6 10 0 -2
BITMAP 
30
48
48
48
B4
98
88
74
00
00
ENDCHAR
STARTCHAR quotesingle
ENCODING 39
SWIDTH 321 0
DWIDTH 6 0
BBX 6 10 0 -2
BITMAP 
20
20
00
00
00
00
00
00
00
00
ENDCHAR
STARTCHAR parenleft
ENCODING 40
SWIDTH 321 0
DWIDTH 6 0
BBX 6 10 0 -2
BITMAP 
10
20
40
40
40
40
40
20
10
00
ENDCHAR
STARTCHAR parenright
ENCODING 41
SWIDTH 321 0
DWIDTH 6 0
BBX 6 10 0 -2
BITMAP 
40
20
10
10
10
10
10
20
40
00
ENDCHAR
STARTCHAR asterisk
ENCODING 42
SWIDTH 321 0
DWIDTH 6 0
BBX 6 10 0 -2
BITMAP 
00
A8
70
70
70
A8
00
00
00
00
ENDCHAR
STARTCHAR plus
ENCODING 43
SWIDTH 321 0
DWIDTH 6 0
BBX 6 10 0 -2
BITMAP 
00
20
20
F8
20
20
00
00
00
00
ENDCHAR
STARTCHAR comma
ENCODING 44
SWIDTH 321 0
DWIDTH 6 0
BBX 6 10 0 -2
BITMAP 
00
00
00
00
00
00
60
60
20
40
ENDCHAR
STARTCHAR hyphen
ENCODING 45
SWIDTH 321 0
DWIDTH 6 0
BBX 6 10 0 -2
BITMAP 
00
00
00
F8
00
00
00
00
00
00
ENDCHAR
STARTCHAR period
ENCODING 46
SWIDTH 321 0
DWIDTH 6 0
BBX 6 10 0 -2
BITMAP 
00
00
00
00
00
00
60
60
00
00
ENDCHAR
STARTCHAR slash
ENCODING 47
SWIDTH 321 0
DWIDTH 6 0
BBX 6 10 0 -2
BITMAP 
08
08
10
20
20
40
80
80
00
00
ENDCHAR
STARTCHAR zero
ENCODING 48
SWIDTH 321 0
DWIDTH 6 0
BBX 6 10 0 -2
BITMAP 
20
50
88
88
88
88
50
20
00
00
ENDCHAR
STARTCHAR one
ENCODING 49
SWIDTH 321 0
DWIDTH 6 0
BBX 6 10 0 -2
BITMAP 
20
60
20
20
20
20
20
70
00
00
ENDCHAR
STARTCHAR two
ENCODING 50
SWIDTH 321 0
DWIDTH 6 0
BBX 6 10 0 -2
BITMAP 
70
88
08
30
40
80
80
F8
00
00
ENDCHAR
STARTCHAR three
ENCODING 51
SWIDTH 321 0
DWIDTH 6 0
BBX 6 10 0 -2
BITMAP 
70
88
08
30
08
08
88
70
00
00
ENDCHAR
STARTCHAR four
ENCODING 52
SWIDTH 321 0
DWIDTH 6 0
BBX 6 10 0 -2
BITMAP 
10
30
50
50
90
F8
10
10
00
00
ENDCHAR
STARTCHAR five
ENCODING 53
SWIDTH 321 0
DWIDTH 6 0
BBX 6 10 0 -2
BITMAP 
F8
80
80
F0
08
08
88
70
00
00
ENDCHAR
STARTCHAR six
ENCODING 54
SWIDTH 321 0
DWIDTH 6 0
BBX 6 10 0 -2
BITMAP 
78
80
80
F0
88
88
88
70
00
00
ENDCHAR
STARTCHAR seven
ENCODING 55
SWIDTH 321 0
DWIDTH 6 0
BBX 6 10 0 -2
BITMAP 
F8
08
10
10
20
20
40
40
00
00
ENDCHAR
STARTCHAR eight
ENCODING 56
SWIDTH 321 0
DWIDTH 6 0
BBX 6 10 0 -2
BITMAP 
70
88
88
70
88
88
88
70
00
00
ENDCHAR
STARTCHAR nine
ENCODING 57
SWIDTH 321 0
DWIDTH 6 0
BBX 6 10 0 -2
BITMAP 
70
88
88
78
08
08
10
E0
00
00
ENDCHAR
STARTCHAR colon
ENCODING 58
SWIDTH 321 0
DWIDTH 6 0
BBX 6 10 0 -2
BITMAP 
00
00
60
60
00
00
60
60
00
00
ENDCHAR
STARTCHAR semicolon
ENCODING 59
SWIDTH 321 0
DWIDTH 6 0
BBX 6 10 0 -2
BITMAP 
00
00
60
60
00
00
60
60
20
40
ENDCHAR
STARTCHAR less
ENCODING 60
SWIDTH 321 0
DWIDTH 6 0
BBX 6 10 0 -2
BITMAP 
08
10
20
40
40
20
10
08
00
00
ENDCHAR
STARTCHAR equal
ENCODING 61
SWIDTH 321 0
DWIDTH 6 0
BBX 6 10 0 -2
BITMAP 
00
00
F8
00
F8
00
00
00
00
00
ENDCHAR
STARTCHAR greater
ENCODING 62
SWIDTH 321 0
DWIDTH 6 0
BBX 6 10 0 -2
BITMAP 
40
20
10
08
08
10
20
40
00
00
ENDCHAR
STARTCHAR question
ENCODING 63
SWIDTH 321 0
DWIDTH 6 0
BBX 6 10 0 -2
BITMAP 
70
88
08
10
20
20
00
20
00
00
ENDCHAR
STARTCHAR at
ENCODING 64
SWIDTH 321 0
DWIDTH 6 0
BBX 6 10 0 -2
BITMAP 
78
84
B4
D4
C4
BC
80
78
00
00
ENDCHAR
STARTCHAR A
ENCODING 65
SWIDTH 321 0
DWIDTH 6 0
BBX 6 10 0 -2
BITMAP 
70
88
88
F8
88
88
88
88
00
00
ENDCHAR
STARTCHAR B
ENCODING 66
SWIDTH 321 0
DWIDTH 6 0
BBX 6 10 0 -2
BITMAP 
F0
88
88
F0
88
88
88
F0
00
00
ENDCHAR
STARTCHAR C
ENCODING 67
SWIDTH 321 0
DWIDTH 6 0
BBX 6 10 0 -2
BITMAP 
70
88
80
80
80
80
88
70
00
00
ENDCHAR
STARTCHAR D
ENCODING 68
SWIDTH 321 0
DWIDTH 6 0
BBX 6 10 0 -2
BITMAP 
E0
90
88
88
88
88
90
E0
00
00
ENDCHAR
STARTCHAR E
ENCODING 69
SWIDTH 321 0
DWIDTH 6 0
BBX 6 10 0 -2
BITMAP 
F8
80
80
F0
80
80
80
F8
00
00
ENDCHAR
STARTCHAR F
ENCODING 70
SWIDTH 321 0
DWIDTH 6 0
BBX 6 10 0 -2
BITMAP 
F8
80
80
F0
80
80
80
80
00
00
ENDCHAR
STARTCHAR G
ENCODING 71
SWIDTH 321 0
DWIDTH 6 0
BBX 6 10 0 -2
BITMAP 
70
88
80
80
98
88
88
70
00
00
ENDCHAR
STARTCHAR H
ENCODING 72
SWIDTH 321 0
DWIDTH 6 0
BBX 6 10 0 -2
BITMAP 
88
88
88
F8
88
88
88
88
00
00
ENDCHAR
STARTCHAR I
ENCODING 73
SWIDTH 321 0
DWIDTH 6 0
BBX 6 10 0 -2
BITMAP 
70
20
20
20
20
20
20
70
00
00
ENDCHAR
STARTCHAR J
ENCODING 74
SWIDTH 321 0
DWIDTH 6 0
BBX 6 10 0 -2
BITMAP 
38
10
10
10
10
10
90
60
00
00
ENDCHAR
STARTCHAR K
ENCODING 75
SWIDTH 321 0
DWIDTH 6 0
BBX 6 10 0 -2
BITMAP 
88
90
A0
C0
C0
A0
90
88
00
00
ENDCHAR
STARTCHAR L
ENCODING 76
SWIDTH 321 0
DWIDTH 6 0
BBX 6 10 0 -2
BITMAP 
80
80
80
80
80
80
80
F8
00
00
ENDCHAR
STARTCHAR M
ENCODING 77
SWIDTH 321 0
DWIDTH 6 0
BBX 6 10 0 -2
BITMAP 
88
D8
A8
A8
A8
88
88
88
00
00
ENDCHAR
STARTCHAR N
ENCODING 78
SWIDTH 321 0
DWIDTH 6 0
BBX 6 10 0 -2
BITMAP 
88
C8
C8
A8
98
98
88
88
00
00
ENDCHAR
STARTCHAR O
ENCODING 79
SWIDTH 321 0
DWIDTH 6 0
BBX 6 10 0 -2
BITMAP 
70
88
88
88
88
88
88
70
00
00
ENDCHAR
STARTCHAR P
ENCODING 80
SWIDTH 321 0
DWIDTH 6 0
BBX 6 10 0 -2
BITMAP 
F0
88
88
88
F0
80
80
80
00
00
ENDCHAR
STARTCHAR Q
ENCODING 81
SWIDTH 321 0
DWIDTH 6 0
BBX 6 10 0 -2
BITMAP 
70
88
88
88
88
88
A8
70
10
00
ENDCHAR
STARTCHAR R
ENCODING 82
SWIDTH 321 0
DWIDTH 6 0
BBX 6 10 0 -2
BITMAP 
F0
88
88
F0
88
88
88
88
00
00
ENDCHAR
STARTCHAR S
ENCODING 83
SWIDTH 321 0
DWIDTH 6 0
BBX 6 10 0 -2
BITMAP 
70
88
80
70
08
08
88
70
00
00
ENDCHAR
STARTCHAR T
ENCODING 84
SWIDTH 321 0
DWIDTH 6 0
BBX 6 10 0 -2
BITMAP 
F8
20
20
20
20
20
20
20
00
00
ENDCHAR
STARTCHAR U
ENCODING 85
SWIDTH 321 0
DWIDTH 6 0
BBX 6 10 0 -2
BITMAP 
88
88
88
88
88
88
88
70
00
00
ENDCHAR
STARTCHAR V
ENCODING 86
SWIDTH 321 0
DWIDTH 6 0
BBX 6 10 0 -2
BITMAP 
88
88
88
50
50
50
20
20
00
00
ENDCHAR
STARTCHAR W
ENCODING 87
SWIDTH 321 0
DWIDTH 6 0
BBX 6 10 0 -2
BITMAP 
88
88
88
88
A8
A8
50
50
00
00
ENDCHAR
STARTCHAR X
ENCODING 88
SWIDTH 321 0
DWIDTH 6 0
BBX 6 10 0 -2
BITMAP 
88
88
50
20
20
50
88
88
00
00
ENDCHAR
STARTCHAR Y
ENCODING 89
SWIDTH 321 0
DWIDTH 6 0
BBX 6 10 0 -2
BITMAP 
88
88
50
20
20
20
20
20
00
00
ENDCHAR
STARTCHAR Z
ENCODING 90
SWIDTH 321 0
DWIDTH 6 0
BBX 6 10 0 -2
BITMAP 
F8
08
10
20
20
40
80
F8
00
00
ENDCHAR
STARTCHAR bracketleft
ENCODING 91
SWIDTH 321 0
DWIDTH 6 0
BBX 6 10 0 -2
BITMAP 
70
40
40
40
40
40
40
40
70
00
ENDCHAR
STARTCHAR backslash
ENCODING 92
SWIDTH 321 0
DWIDTH 6 0
BBX 6 10 0 -2
BITMAP 
80
80
40
20
20
10
08
08
00
00
ENDCHAR
STARTCHAR bracketright
ENCODING 93
SWIDTH 321 0
DWIDTH 6 0
BBX 6 10 0 -2
BITMAP 
70
10
10
10
10
10
10
10
70
00
ENDCHAR
STARTCHAR asciicircum
ENCODING 94
SWIDTH 321 0
DWIDTH 6 0
BBX 6 10 0 -2
BITMAP 
20
50
88
00
00
00
00
00
00
00
ENDCHAR
STARTCHAR underscore
ENCODING 95
SWIDTH 321 0
DWIDTH 6 0
BBX 6 10 0 -2
BITMAP 
00
00
00
00
00
00
00
00
00
FC
ENDCHAR
STARTCHAR grave
ENCODING 96
SWIDTH 321 0
DWIDTH 6 0
BBX 6 10 0 -2
BITMAP 
20
20
10
00
00
00
00
00
00
00
ENDCHAR
STARTCHAR a
ENCODING 97
SWIDTH 321 0
DWIDTH 6 0
BBX 6 10 0 -2
BITMAP 
00
00
70
08
78
88
88
78
00
00
ENDCHAR
STARTCHAR b
ENCODING 98
SWIDTH 321 0
DWIDTH 6 0
BBX 6 10 0 -2
BITMAP 
80
80
F0
88
88
88
88
F0
00
00
ENDCHAR
STARTCHAR c
ENCODING 99
SWIDTH 321 0
DWIDTH 6 0
BBX 6 10 0 -2
BITMAP 
00
00
70
88
80
80
88
70
00
00
ENDCHAR
STARTCHAR d
ENCODING 100
SWIDTH 321 0
DWIDTH 6 0
BBX 6 10 0 -2
BITMAP 
08
08
78
88
88
88
88
78
00
00
ENDCHAR
STARTCHAR e
ENCODING 101
SWIDTH 321 0
DWIDTH 6 0
BBX 6 10 0 -2
BITMAP 
00
00
70
88
88
F0
80
70
00
00
ENDCHAR
STARTCHAR f
ENCODING 102
SWIDTH 321 0
DWIDTH 6 0
BBX 6 10 0 -2
BITMAP 
30
40
F0
40
40
40
40
40
00
00
ENDCHAR
STARTCHAR g
ENCODING 103
SWIDTH 321 0
DWIDTH 6 0
BBX 6 10 0 -2
BITMAP 
00
00
78
88
88
88
88
78
08
70
ENDCHAR
STARTCHAR h
ENCODING 104
SWIDTH 321 0
DWIDTH 6 0
BBX 6 10 0 -2
BITMAP 
80
80
F0
88
88
88
88
88
00
00
ENDCHAR
STARTCHAR i
ENCODING 105
SWIDTH 321 0
DWIDTH 6 0
BBX 6 10 0 -2
BITMAP 
20
00
60
20
20
20
20
70
00
00
ENDCHAR
STARTCHAR j
ENCODING 106
SWIDTH 321 0
DWIDTH 6 0
BBX 6 10 0 -2
BITMAP 
20
00
60
20
20
20
20
20
20
40
ENDCHAR
STARTCHAR k
ENCODING 107
SWIDTH 321 0
DWIDTH 6 0
BBX 6 10 0 -2
BITMAP 
80
80
88
90
A0
E0
90
88
00
00
ENDCHAR
STARTCHAR l
ENCODING 108
SWIDTH 321 0
DWIDTH 6 0
BBX 6 10 0 -2
BITMAP 
C0
40
40
40
40
40
40
E0
00
00
ENDCHAR
STARTCHAR m
ENCODING 109
SWIDTH 321 0
DWIDTH 6 0
BBX 6 10 0 -2
BITMAP 
00
00
D0
A8
A8
A8
A8
A8
00
00
ENDCHAR
STARTCHAR n
ENCODING 110
SWIDTH 321 0
DWIDTH 6 0
BBX 6 10 0 -2
BITMAP 
00
00
F0
88
88
88
88
88
00
00
ENDCHAR
STARTCHAR o
ENCODING 111
SWIDTH 321 0
DWIDTH 6 0
BBX 6 10 0 -2
BITMAP 
00
00
70
88
88
88
88
70
00
00
ENDCHAR
STARTCHAR p
ENCODING 112
SWIDTH 321 0
DWIDTH 6 0
BBX 6 10 0 -2
BITMAP 
00
00
F0
88
88
88
88
F0
80
80
ENDCHAR
STARTCHAR q
ENCODING 113
SWIDTH 321 0
DWIDTH 6 0
BBX 6 10 0 -2
BITMAP 
00
00
78
88
88
88
88
78
08
08
ENDCHAR
STARTCHAR r
ENCODING 114
SWIDTH 321 0
DWIDTH 6 0
BBX 6 10 0 -2
BITMAP 
00
00
B8
C0
80
80
80
80
00
00
ENDCHAR
STARTCHAR s
ENCODING 115
SWIDTH 321 0
DWIDTH 6 0
BBX 6 10 0 -2
BITMAP 
00
00
70
88
60
10
88
70
00
00
ENDCHAR
STARTCHAR t
ENCODING 116
SWIDTH 321 0
DWIDTH 6 0
BBX 6 10 0 -2
BITMAP 
00
40
E0
40
40
40
40
60
00
00
ENDCHAR
STARTCHAR u
ENCODING 117
SWIDTH 321 0
DWIDTH 6 0
BBX 6 10 0 -2
BITMAP 
00
00
88
88
88
88
88
70
00
00
ENDCHAR
STARTCHAR v
ENCODING 118
SWIDTH 321 0
DWIDTH 6 0
BBX 6 10 0 -2
BITMAP 
00
00
88
88
50
50
50
20
00
00
ENDCHAR
STARTCHAR w
ENCODING 119
SWIDTH 321 0
DWIDTH 6 0
BBX 6 10 0 -2
BITMAP 
00
00
88
A8
A8
A8
70
50
00
00
ENDCHAR
STARTCHAR x
ENCODING 120
SWIDTH 321 0
DWIDTH 6 0
BBX 6 10 0 -2
BITMAP 
00
00
88
50
20
20
50
88
00
00
ENDCHAR
STARTCHAR y
ENCODING 121
SWIDTH 321 0
DWIDTH 6 0
BBX 6 10 0 -2
BITMAP 
00
00
88
88
88
88
88
78
08
70
ENDCHAR
STARTCHAR z
ENCODING 122
SWIDTH 321 0
DWIDTH 6 0
BBX 6 10 0 -2
BITMAP 
00
00
F8
10
20
20
40
F8
00
00
ENDCHAR
STARTCHAR braceleft
ENCODING 123
SWIDTH 321 0
DWIDTH 6 0
BBX 6 10 0 -2
BITMAP 
30
40
40
40
80
40
40
40
30
00
ENDCHAR
STARTCHAR bar
ENCODING 124
SWIDTH 321 0
DWIDTH 6 0
BBX 6 10 0 -2
BITMAP 
20
20
20
20
20
20
20
20
20
00
ENDCHAR
STARTCHAR braceright
ENCODING 125
SWIDTH 321 0
DWIDTH 6 0
BBX 6 10 0 -2
BITMAP 
C0
20
20
20
10
20
20
20
C0
00
ENDCHAR
STARTCHAR asciitilde
ENCODING 126
SWIDTH 321 0
DWIDTH 6 0
BBX 6 10 0 -2
BITMAP 
48
B0
00
00
00
00
00
00
00
00
ENDCHAR
STARTCHAR house
ENCODING 127
SWIDTH 321 0
DWIDTH 6 0
BBX 6 10 0 -2
BITMAP 
00
20
50
88
88
88
88
F8
00
00
ENDCHAR
STARTCHAR Ccedilla
ENCODING 128
SWIDTH 321 0
DWIDTH 6 0
BBX 6 10 0 -2
BITMAP 
00
70
88
80
80
80
88
70
10
20
ENDCHAR
STARTCHAR udieresis
ENCODING 129
SWIDTH 321 0
DWIDTH 6 0
BBX 6 10 0 -2
BITMAP 
00
50
00
88
88
88
88
78
00
00
ENDCHAR
STARTCHAR eacute
ENCODING 130
SWIDTH 321 0
DWIDTH 6 0
BBX 6 10 0 -2
BITMAP 
10
20
70
88
88
F0
80
70
00
00
ENDCHAR
STARTCHAR acircumflex
ENCODING 131
SWIDTH 321 0
DWIDTH 6 0
BBX 6 10 0 -2
BITMAP 
20
50
70
08
78
88
88
78
00
00
ENDCHAR
STARTCHAR adieresis
ENCODING 132
SWIDTH 321 0
DWIDTH 6 0
BBX 6 10 0 -2
BITMAP 
50
00
70
08
78
88
88
78
00
00
ENDCHAR
STARTCHAR agrave
ENCODING 133
SWIDTH 321 0
DWIDTH 6 0
BBX 6 10 0 -2
BITMAP 
40
20
70
08
78
88
88
78
00
00
ENDCHAR
STARTCHAR aring
ENCODING 134
SWIDTH 321 0
DWIDTH 6 0
BBX 6 10 0 -2
BITMAP 
30
00
70
08
78
88
88
78
00
00
ENDCHAR
STARTCHAR ccedilla
ENCODING 135
SWIDTH 321 0
DWIDTH 6 0
BBX 6 10 0 -2
BITMAP 
00
00
70
88
80
80
88
70
20
40
ENDCHAR
STARTCHAR ecircumflex
ENCODING 136
SWIDTH 321 0
DWIDTH 6 0
BBX 6 10 0 -2
BITMAP 
20
50
70
88
88
F0
80
70
00
00
ENDCHAR
STARTCHAR edieresis
ENCODING 137
SWIDTH 321 0
DWIDTH 6 0
BBX 6 10 0 -2
BITMAP 
50
00
70
88
88
F0
80
70
00
00
ENDCHAR
STARTCHAR egrave
ENCODING 138
SWIDTH 321 0
DWIDTH 6 0
BBX 6 10 0 -2
BITMAP 
40
20
70
88
88
F0
80
70
00
00
ENDCHAR
STARTCHAR idieresis
ENCODING 139
SWIDTH 321 0
DWIDTH 6 0
BBX 6 10 0 -2
BITMAP 
50
00
60
20
20
20
20
70
00
00
ENDCHAR
STARTCHAR icircumflex
ENCODING 140
SWIDTH 321 0
DWIDTH 6 0
BBX 6 10 0 -2
BITMAP 
20
50
60
20
20
20
20
70
00
00
ENDCHAR
STARTCHAR igrave
ENCODING 141
SWIDTH 321 0
DWIDTH 6 0
BBX 6 10 0 -2
BITMAP 
20
10
60
20
20
20
20
70
00
00
ENDCHAR
STARTCHAR Adieresis
ENCODING 142
SWIDTH 321 0
DWIDTH 6 0
BBX 6 10 0 -2
BITMAP 
50
00
70
88
F8
88
88
88
00
00
ENDCHAR
STARTCHAR Aring
ENCODING 143
SWIDTH 321 0
DWIDTH 6 0
BBX 6 10 0 -2
BITMAP 
30
00
70
88
F8
88
88
88
00
00
ENDCHAR
STARTCHAR Eacute
ENCODING 144
SWIDTH 321 0
DWIDTH 6 0
BBX 6 10 0 -2
BITMAP 
10
20
F8
80
F0
80
80
F8
00
00
ENDCHAR
STARTCHAR ae
ENCODING 145
SWIDTH 321 0
DWIDTH 6 0
BBX 6 10 0 -2
BITMAP 
00
00
D8
28
E8
B8
A0
78
00
00
ENDCHAR
STARTCHAR AE
ENCODING 146
SWIDTH 321 0
DWIDTH 6 0
BBX 6 10 0 -2
BITMAP 
00
7C
A0
A0
B8
E0
A0
BC
00
00
ENDCHAR
STARTCHAR ocircumflex
ENCODING 147
SWIDTH 321 0
DWIDTH 6 0
BBX 6 10 0 -2
BITMAP 
20
50
70
88
88
88
88
70
00
00
ENDCHAR
STARTCHAR odieresis
ENCODING 148
SWIDTH 321 0
DWIDTH 6 0
BBX 6 10 0 -2
BITMAP 
50
00
70
88
88
88
88
70
00
00
ENDCHAR
STARTCHAR ograve
ENCODING 149
SWIDTH 321 0
DWIDTH 6 0
BBX 6 10 0 -2
BITMAP 
40
20
70
88
88
88
88
70
00
00
ENDCHAR
STARTCHAR ucircumflex
ENCODING 150
SWIDTH 321 0
DWIDTH 6 0
BBX 6 10 0 -2
BITMAP 
20
50
00
88
88
88
88
78
00
00
ENDCHAR
STARTCHAR ugrave
ENCODING 151
SWIDTH 321 0
DWIDTH 6 0
BBX 6 10 0 -2
BITMAP 
40
20
00
88
88
88
88
78
00
00
ENDCHAR
STARTCHAR ydieresis
ENCODING 152
SWIDTH 321 0
DWIDTH 6 0
BBX 6 10 0 -2
BITMAP 
00
50
00
88
88
88
88
78
08
70
ENDCHAR
STARTCHAR Odieresis
ENCODING 153
SWIDTH 321 0
DWIDTH 6 0
BBX 6 10 0 -2
BITMAP 
50
00
70
88
88
88
88
70
00
00
ENDCHAR
STARTCHAR Udieresis
ENCODING 154
SWIDTH 321 0
DWIDTH 6 0
BBX 6 10 0 -2
BITMAP 
50
00
88
88
88
88
88
70
00
00
ENDCHAR
STARTCHAR oslash
ENCODING 155
SWIDTH 321 0
DWIDTH 6 0
BBX 6 10 0 -2
BITMAP 
00
00
70
88
98
A8
C8
70
00
00
ENDCHAR
STARTCHAR sterling
ENCODING 156
SWIDTH 321 0
DWIDTH 6 0
BBX 6 10 0 -2
BITMAP 
00
70
88
40
F0
40
40
F8
00
00
ENDCHAR
STARTCHAR Oslash
ENCODING 157
SWIDTH 321 0
DWIDTH 6 0
BBX 6 10 0 -2
BITMAP 
00
70
98
A8
A8
A8
C8
70
00
00
ENDCHAR
STARTCHAR multiply
ENCODING 158
SWIDTH 321 0
DWIDTH 6 0
BBX 6 10 0 -2
BITMAP 
00
00
88
50
20
50
88
00
00
00
ENDCHAR
STARTCHAR florin
ENCODING 159
SWIDTH 321 0
DWIDTH 6 0
BBX 6 10 0 -2
BITMAP 
18
28
20
70
20
20
20
20
A0
C0
ENDCHAR
STARTCHAR aacute
ENCODING 160
SWIDTH 321 0
DWIDTH 6 0
BBX 6 10 0 -2
BITMAP 
10
20
70
08
78
88
88
78
00
00
ENDCHAR
STARTCHAR iacute
ENCODING 161
SWIDTH 321 0
DWIDTH 6 0
BBX 6 10 0 -2
BITMAP 
10
20
60
20
20
20
20
70
00
00
ENDCHAR
STARTCHAR oacute
ENCODING 162
SWIDTH 321 0
DWIDTH 6 0
BBX 6 10 0 -2
BITMAP 
10
20
70
88
88
88
88
70
00
00
ENDCHAR
STARTCHAR uacute
ENCODING 163
SWIDTH 321 0
DWIDTH 6 0
BBX 6 10 0 -2
BITMAP 
10
20
88
88
88
88
88
78
00
00
ENDCHAR
STARTCHAR ntilde
ENCODING 164
SWIDTH 321 0
DWIDTH 6 0
BBX 6 10 0 -2
BITMAP 
50
00
F0
88
88
88
88
88
00
00
ENDCHAR
STARTCHAR Ntilde
ENCODING 165
SWIDTH 321 0
DWIDTH 6 0
BBX 6 10 0 -2
BITMAP 
48
B0
88
C8
A8
A8
98
88
00
00
ENDCHAR
STARTCHAR ordfeminine
ENCODING 166
SWIDTH 321 0
DWIDTH 6 0
BBX 6 10 0 -2
BITMAP 
70
08
78
88
78
00
F8
00
00
00
ENDCHAR
STARTCHAR ordmasculine
ENCODING 167
SWIDTH 321 0
DWIDTH 6 0
BBX 6 10 0 -2
BITMAP 
70
88
88
88
70
00
F8
00
00
00
ENDCHAR
STARTCHAR questiondown
ENCODING 168
SWIDTH 321 0
DWIDTH 6 0
BBX 6 10 0 -2
BITMAP 
00
20
00
20
20
40
80
88
70
00
ENDCHAR
STARTCHAR registered
ENCODING 169
SWIDTH 321 0
DWIDTH 6 0
BBX 6 10 0 -2
BITMAP 
78
84
A4
B4
B4
B4
84
78
00
00
ENDCHAR
STARTCHAR logicalnot
ENCODING 170
SWIDTH 321 0
DWIDTH 6 0
BBX 6 10 0 -2
BITMAP 
00
00
00
00
F8
08
08
08
00
00
ENDCHAR
STARTCHAR onehalf
ENCODING 171
SWIDTH 321 0
DWIDTH 6 0
BBX 6 10 0 -2
BITMAP 
44
C4
48
50
28
54
88
9C
00
00
ENDCHAR
STARTCHAR onequarter
ENCODING 172
SWIDTH 321 0
DWIDTH 6 0
BBX 6 10 0 -2
BITMAP 
44
C4
48
50
28
54
84
94
08
00
ENDCHAR
STARTCHAR exclamdown
ENCODING 173
SWIDTH 321 0
DWIDTH 6 0
BBX 6 10 0 -2
BITMAP 
00
20
00
20
20
20
20
20
00
00
ENDCHAR
STARTCHAR guillemotleft
ENCODING 174
SWIDTH 321 0
DWIDTH 6 0
BBX 6 10 0 -2
BITMAP 
28
50
50
A0
A0
50
50
28
00
00
ENDCHAR
STARTCHAR guillemotright
ENCODING 175
SWIDTH 321 0
DWIDTH 6 0
BBX 6 10 0 -2
BITMAP 
A0
50
50
28
28
50
50
A0
00
00
ENDCHAR
STARTCHAR ltshade
ENCODING 176
SWIDTH 321 0
DWIDTH 6 0
BBX 6 10 0 -2
BITMAP 
A8
00
00
54
00
00
A8
00
00
54
ENDCHAR
STARTCHAR shade
ENCODING 177
SWIDTH 321 0
DWIDTH 6 0
BBX 6 10 0 -2
BITMAP 
A8
00
54
00
A8
00
54
00
A8
00
ENDCHAR
STARTCHAR dkshade
ENCODING 178
SWIDTH 321 0
DWIDTH 6 0
BBX 6 10 0 -2
BITMAP 
A8
54
A8
54
A8
54
A8
54
A8
54
ENDCHAR
STARTCHAR SF110000
ENCODING 179
SWIDTH 321 0
DWIDTH 6 0
BBX 6 10 0 -2
BITMAP 
20
20
20
20
20
20
20
20
20
20
ENDCHAR
STARTCHAR SF090000
ENCODING 180
SWIDTH 321 0
DWIDTH 6 0
BBX 6 10 0 -2
BITMAP 
20
20
20
20
E0
20
20
20
20
20
ENDCHAR
STARTCHAR Aacute
ENCODING 181
SWIDTH 321 0
DWIDTH 6 0
BBX 6 10 0 -2
BITMAP 
10
20
70
88
F8
88
88
88
00
00
ENDCHAR
STARTCHAR Acircumflex
ENCODING 182
SWIDTH 321 0
DWIDTH 6 0
BBX 6 10 0 -2
BITMAP 
20
50
70
88
F8
88
88
88
00
00
ENDCHAR
STARTCHAR Agrave
ENCODING 183
SWIDTH 321 0
DWIDTH 6 0
BBX 6 10 0 -2
BITMAP 
40
20
70
88
F8
88
88
88
88
00
ENDCHAR
STARTCHAR copyright
ENCODING 184
SWIDTH 321 0
DWIDTH 6 0
BBX 6 10 0 -2
BITMAP 
78
84
B4
A4
A4
B4
84
78
00
00
ENDCHAR
STARTCHAR SF230000
ENCODING 185
SWIDTH 321 0
DWIDTH 6 0
BBX 6 10 0 -2
BITMAP 
50
50
50
D0
10
D0
50
50
50
50
ENDCHAR
STARTCHAR SF240000
ENCODING 186
SWIDTH 321 0
DWIDTH 6 0
BBX 6 10 0 -2
BITMAP 
50
50
50
50
50
50
50
50
50
50
ENDCHAR
STARTCHAR SF250000
ENCODING 187
SWIDTH 321 0
DWIDTH 6 0
BBX 6 10 0 -2
BITMAP 
00
00
00
F0
10
D0
50
50
50
50
ENDCHAR
STARTCHAR SF260000
ENCODING 188
SWIDTH 321 0
DWIDTH 6 0
BBX 6 10 0 -2
BITMAP 
50
50
50
D0
10
F0
00
00
00
00
ENDCHAR
STARTCHAR cent
ENCODING 189
SWIDTH 321 0
DWIDTH 6 0
BBX 6 10 0 -2
BITMAP 
00
20
70
88
80
88
70
20
00
00
ENDCHAR
STARTCHAR yen
ENCODING 190
SWIDTH 321 0
DWIDTH 6 0
BBX 6 10 0 -2
BITMAP 
00
88
88
50
F8
20
F8
20
00
00
ENDCHAR
STARTCHAR SF030000
ENCODING 191
SWIDTH 321 0
DWIDTH 6 0
BBX 6 10 0 -2
BITMAP 
00
00
00
00
E0
20
20
20
20
20
ENDCHAR
STARTCHAR SF020000
ENCODING 192
SWIDTH 321 0
DWIDTH 6 0
BBX 6 10 0 -2
BITMAP 
20
20
20
20
3C
00
00
00
00
00
ENDCHAR
STARTCHAR SF070000
ENCODING 193
SWIDTH 321 0
DWIDTH 6 0
BBX 6 10 0 -2
BITMAP 
20
20
20
20
FC
00
00
00
00
00
ENDCHAR
STARTCHAR SF060000
ENCODING 194
SWIDTH 321 0
DWIDTH 6 0
BBX 6 10 0 -2
BITMAP 
00
00
00
00
FC
20
20
20
20
20
ENDCHAR
STARTCHAR SF080000
ENCODING 195
SWIDTH 321 0
DWIDTH 6 0
BBX 6 10 0 -2
BITMAP 
20
20
20
20
3C
20
20
20
20
20
ENDCHAR
STARTCHAR SF100000
ENCODING 196
SWIDTH 321 0
DWIDTH 6 0
BBX 6 10 0 -2
BITMAP 
00
00
00
00
FC
00
00
00
00
00
ENDCHAR
STARTCHAR SF050000
ENCODING 197
SWIDTH 321 0
DWIDTH 6 0
BBX 6 10 0 -2
BITMAP 
20
20
20
20
FC
20
20
20
20
20
ENDCHAR
STARTCHAR atilde
ENCODING 198
SWIDTH 321 0
DWIDTH 6 0
BBX 6 10 0 -2
BITMAP 
48
B0
70
08
78
88
88
78
00
00
ENDCHAR
STARTCHAR Atilde
ENCODING 199
SWIDTH 321 0
DWIDTH 6 0
BBX 6 10 0 -2
BITMAP 
48
B0
70
88
F8
88
88
88
00
00
ENDCHAR
STARTCHAR SF380000
ENCODING 200
SWIDTH 321 0
DWIDTH 6 0
BBX 6 10 0 -2
BITMAP 
50
50
50
5C
40
7C
00
00
00
00
ENDCHAR
STARTCHAR SF390000
ENCODING 201
SWIDTH 321 0
DWIDTH 6 0
BBX 6 10 0 -2
BITMAP 
00
00
00
7C
40
5C
50
50
50
50
ENDCHAR
STARTCHAR SF400000
ENCODING 202
SWIDTH 321 0
DWIDTH 6 0
BBX 6 10 0 -2
BITMAP 
50
50
50
DC
00
FC
00
00
00
00
ENDCHAR
STARTCHAR SF410000
ENCODING 203
SWIDTH 321 0
DWIDTH 6 0
BBX 6 10 0 -2
BITMAP 
00
00
00
FC
00
DC
50
50
50
50
ENDCHAR
STARTCHAR SF420000
ENCODING 204
SWIDTH 321 0
DWIDTH 6 0
BBX 6 10 0 -2
BITMAP 
50
50
50
5C
40
5C
50
50
50
50
ENDCHAR
STARTCHAR SF430000
ENCODING 205
SWIDTH 321 0
DWIDTH 6 0
BBX 6 10 0 -2
BITMAP 
00
00
00
FC
00
FC
00
00
00
00
ENDCHAR
STARTCHAR SF440000
ENCODING 206
SWIDTH 321 0
DWIDTH 6 0
BBX 6 10 0 -2
BITMAP 
50
50
50
DC
00
DC
50
50
50
50
ENDCHAR
STARTCHAR currency
ENCODING 207
SWIDTH 321 0
DWIDTH 6 0
BBX 6 10 0 -2
BITMAP 
00
88
50
70
50
70
50
88
00
00
ENDCHAR
STARTCHAR eth
ENCODING 208
SWIDTH 321 0
DWIDTH 6 0
BBX 6 10 0 -2
BITMAP 
00
E8
10
28
78
88
88
70
00
00
ENDCHAR
STARTCHAR Eth
ENCODING 209
SWIDTH 321 0
DWIDTH 6 0
BBX 6 10 0 -2
BITMAP 
E0
90
88
E8
88
88
90
E0
00
00
ENDCHAR
STARTCHAR Ecircumflex
ENCODING 210
SWIDTH 321 0
DWIDTH 6 0
BBX 6 10 0 -2
BITMAP 
20
50
F8
80
F0
80
80
F8
00
00
ENDCHAR
STARTCHAR Edieresis
ENCODING 211
SWIDTH 321 0
DWIDTH 6 0
BBX 6 10 0 -2
BITMAP 
50
00
F8
80
F0
80
80
F8
00
00
ENDCHAR
STARTCHAR Egrave
ENCODING 212
SWIDTH 321 0
DWIDTH 6 0
BBX 6 10 0 -2
BITMAP 
40
20
F8
80
F0
80
80
F8
00
00
ENDCHAR
STARTCHAR Euro
ENCODING 213
SWIDTH 321 0
DWIDTH 6 0
BBX 6 10 0 -2
BITMAP 
00
00
00
60
20
20
20
70
00
00
ENDCHAR
STARTCHAR Iacute
ENCODING 214
SWIDTH 321 0
DWIDTH 6 0
BBX 6 10 0 -2
BITMAP 
10
20
70
20
20
20
20
70
00
00
ENDCHAR
STARTCHAR Icircumflex
ENCODING 215
SWIDTH 321 0
DWIDTH 6 0
BBX 6 10 0 -2
BITMAP 
20
50
70
20
20
20
20
70
00
00
ENDCHAR
STARTCHAR Idieresis
ENCODING 216
SWIDTH 321 0
DWIDTH 6 0
BBX 6 10 0 -2
BITMAP 
50
00
70
20
20
20
20
70
00
00
ENDCHAR
STARTCHAR SF040000
ENCODING 217
SWIDTH 321 0
DWIDTH 6 0
BBX 6 10 0 -2
BITMAP 
20
20
20
20
E0
00
00
00
00
00
ENDCHAR
STARTCHAR SF010000
ENCODING 218
SWIDTH 321 0
DWIDTH 6 0
BBX 6 10 0 -2
BITMAP 
00
00
00
00
3C
20
20
20
20
20
ENDCHAR
STARTCHAR block
ENCODING 219
SWIDTH 321 0
DWIDTH 6 0
BBX 6 10 0 -2
BITMAP 
FC
FC
FC
FC
FC
FC
FC
FC
FC
FC
ENDCHAR
STARTCHAR dnblock
ENCODING 220
SWIDTH 321 0
DWIDTH 6 0
BBX 6 10 0 -2
BITMAP 
00
00
00
00
00
FC
FC
FC
FC
FC
ENDCHAR
STARTCHAR brokenbar
ENCODING 221
SWIDTH 321 0
DWIDTH 6 0
BBX 6 10 0 -2
BITMAP 
00
20
20
20
00
00
20
20
20
00
ENDCHAR
STARTCHAR Igrave
ENCODING 222
SWIDTH 321 0
DWIDTH 6 0
BBX 6 10 0 -2
BITMAP 
40
20
70
20
20
20
20
70
00
00
ENDCHAR
STARTCHAR upblock
ENCODING 223
SWIDTH 321 0
DWIDTH 6 0
BBX 6 10 0 -2
BITMAP 
FC
FC
FC
FC
FC
00
00
00
00
00
ENDCHAR
STARTCHAR Oacute
ENCODING 224
SWIDTH 321 0
DWIDTH 6 0
BBX 6 10 0 -2
BITMAP 
10
20
70
88
88
88
88
70
00
00
ENDCHAR
STARTCHAR germandbls
ENCODING 225
SWIDTH 321 0
DWIDTH 6 0
BBX 6 10 0 -2
BITMAP 
60
90
90
A0
90
88
88
B0
00
00
ENDCHAR
STARTCHAR Ocircumflex
ENCODING 226
SWIDTH 321 0
DWIDTH 6 0
BBX 6 10 0 -2
BITMAP 
20
50
70
88
88
88
88
70
00
00
ENDCHAR
STARTCHAR Ograve
ENCODING 227
SWIDTH 321 0
DWIDTH 6 0
BBX 6 10 0 -2
BITMAP 
40
20
70
88
88
88
88
70
00
00
ENDCHAR
STARTCHAR otilde
ENCODING 228
SWIDTH 321 0
DWIDTH 6 0
BBX 6 10 0 -2
BITMAP 
48
B0
00
70
88
88
88
70
00
00
ENDCHAR
STARTCHAR Otilde
ENCODING 229
SWIDTH 321 0
DWIDTH 6 0
BBX 6 10 0 -2
BITMAP 
48
B0
70
88
88
88
88
70
00
00
ENDCHAR
STARTCHAR mu
ENCODING 230
SWIDTH 321 0
DWIDTH 6 0
BBX 6 10 0 -2
BITMAP 
00
00
00
88
88
88
C8
B0
80
80
ENDCHAR
STARTCHAR thorn
ENCODING 231
SWIDTH 321 0
DWIDTH 6 0
BBX 6 10 0 -2
BITMAP 
00
80
80
F0
88
88
88
F0
80
80
ENDCHAR
STARTCHAR Thorn
ENCODING 232
SWIDTH 321 0
DWIDTH 6 0
BBX 6 10 0 -2
BITMAP 
80
80
F0
88
88
88
F0
80
00
00
ENDCHAR
STARTCHAR Uacute
ENCODING 233
SWIDTH 321 0
DWIDTH 6 0
BBX 6 10 0 -2
BITMAP 
10
20
88
88
88
88
88
70
00
00
ENDCHAR
STARTCHAR Ucircumflex
ENCODING 234
SWIDTH 321 0
DWIDTH 6 0
BBX 6 10 0 -2
BITMAP 
20
50
88
88
88
88
88
70
00
00
ENDCHAR
STARTCHAR Ugrave
ENCODING 235
SWIDTH 321 0
DWIDTH 6 0
BBX 6 10 0 -2
BITMAP 
40
20
88
88
88
88
88
70
00
00
ENDCHAR
STARTCHAR yacute
ENCODING 236
SWIDTH 321 0
DWIDTH 6 0
BBX 6 10 0 -2
BITMAP 
10
20
00
88
88
88
88
78
08
78
ENDCHAR
STARTCHAR Yacute
ENCODING 237
SWIDTH 321 0
DWIDTH 6 0
BBX 6 10 0 -2
BITMAP 
10
20
88
88
50
20
20
20
00
00
ENDCHAR
STARTCHAR macron
ENCODING 238
SWIDTH 321 0
DWIDTH 6 0
BBX 6 10 0 -2
BITMAP 
FC
00
00
00
00
00
00
00
00
00
ENDCHAR
STARTCHAR acute
ENCODING 239
SWIDTH 321 0
DWIDTH 6 0
BBX 6 10 0 -2
BITMAP 
10
20
00
00
00
00
00
00
00
00
ENDCHAR
STARTCHAR uni00AD
ENCODING 240
SWIDTH 321 0
DWIDTH 6 0
BBX 6 10 0 -2
BITMAP 
00
00
00
00
F8
00
00
00
00
00
ENDCHAR
STARTCHAR plusminus
ENCODING 241
SWIDTH 321 0
DWIDTH 6 0
BBX 6 10 0 -2
BITMAP 
00
20
20
F8
20
20
00
F8
00
00
ENDCHAR
STARTCHAR underscoredbl
ENCODING 242
SWIDTH 321 0
DWIDTH 6 0
BBX 6 10 0 -2
BITMAP 
00
00
00
00
00
00
00
FC
00
FC
ENDCHAR
STARTCHAR threequarters
ENCODING 243
SWIDTH 321 0
DWIDTH 6 0
BBX 6 10 0 -2
BITMAP 
C4
24
68
30
E8
58
A8
BC
08
00
ENDCHAR
STARTCHAR paragraph
ENCODING 244
SWIDTH 321 0
DWIDTH 6 0
BBX 6 10 0 -2
BITMAP 
78
E8
E8
68
28
28
28
28
28
00
ENDCHAR
STARTCHAR section
ENCODING 245
SWIDTH 321 0
DWIDTH 6 0
BBX 6 10 0 -2
BITMAP 
70
40
E0
90
50
48
38
10
70
00
ENDCHAR
STARTCHAR divide
ENCODING 246
SWIDTH 321 0
DWIDTH 6 0
BBX 6 10 0 -2
BITMAP 
00
00
00
20
00
F8
00
20
00
00
ENDCHAR
STARTCHAR cedilla
ENCODING 247
SWIDTH 321 0
DWIDTH 6 0
BBX 6 10 0 -2
BITMAP 
00
00
00
00
00
00
30
30
10
20
ENDCHAR
STARTCHAR degree
ENCODING 248
SWIDTH 321 0
DWIDTH 6 0
BBX 6 10 0 -2
BITMAP 
30
48
48
30
00
00
00
00
00
00
ENDCHAR
STARTCHAR dieresis
ENCODING 249
SWIDTH 321 0
DWIDTH 6 0
BBX 6 10 0 -2
BITMAP 
50
00
00
00
00
00
00
00
00
00
ENDCHAR
STARTCHAR periodcentered
ENCODING 250
SWIDTH 321 0
DWIDTH 6 0
BBX 6 10 0 -2
BITMAP 
00
00
00
30
30
00
00
00
00
00
ENDCHAR
STARTCHAR uni00B9
ENCODING 251
SWIDTH 321 0
DWIDTH 6 0
BBX 6 10 0 -2
BITMAP 
20
60
20
20
70
00
00
00
00
00
ENDCHAR
STARTCHAR uni00B3
ENCODING 252
SWIDTH 321 0
DWIDTH 6 0
BBX 6 10 0 -2
BITMAP 
60
10
20
40
70
00
00
00
00
00
ENDCHAR
STARTCHAR uni00B2
ENCODING 253
SWIDTH 321 0
DWIDTH 6 0
BBX 6 10 0 -2
BITMAP 
60
10
20
10
60
00
00
00
00
00
ENDCHAR
STARTCHAR filledbox
ENCODING 254
SWIDTH 321 0
DWIDTH 6 0
BBX 6 10 0 -2
BITMAP 
00
00
78
78
78
78
78
00
00
00
ENDCHAR
STARTCHAR uni00A0
ENCODING 255
SWIDTH 321 0
DWIDTH 6 0
BBX 6 10 0 -2
BITMAP 
00
00
00
00
00
00
00
00
00
00
ENDCHAR
STARTCHAR peseta
ENCODING 256
SWIDTH 321 0
DWIDTH 6 0
BBX 6 10 0 -2
BITMAP 
F0
88
88
F0
8C
F0
A4
A8
00
00
ENDCHAR
STARTCHAR revlogicalnot
ENCODING 257
SWIDTH 321 0
DWIDTH 6 0
BBX 6 10 0 -2
BITMAP 
00
00
00
00
00
F8
80
80
00
00
ENDCHAR
STARTCHAR SF190000
ENCODING 258
SWIDTH 321 0
DWIDTH 6 0
BBX 6 10 0 -2
BITMAP 
20
20
20
E0
20
E0
20
20
20
20
ENDCHAR
STARTCHAR SF200000
ENCODING 259
SWIDTH 321 0
DWIDTH 6 0
BBX 6 10 0 -2
BITMAP 
50
50
50
50
50
50
50
50
50
50
ENDCHAR
STARTCHAR SF210000
ENCODING 260
SWIDTH 321 0
DWIDTH 6 0
BBX 6 10 0 -2
BITMAP 
00
00
00
00
F0
50
50
50
50
50
ENDCHAR
STARTCHAR SF220000
ENCODING 261
SWIDTH 321 0
DWIDTH 6 0
BBX 6 10 0 -2
BITMAP 
00
00
00
E0
20
E0
20
20
20
20
ENDCHAR
STARTCHAR SF270000
ENCODING 262
SWIDTH 321 0
DWIDTH 6 0
BBX 6 10 0 -2
BITMAP 
50
50
50
50
50
F0
00
00
00
00
ENDCHAR
STARTCHAR SF280000
ENCODING 263
SWIDTH 321 0
DWIDTH 6 0
BBX 6 10 0 -2
BITMAP 
20
20
20
E0
20
E0
00
00
00
00
ENDCHAR
STARTCHAR SF360000
ENCODING 264
SWIDTH 321 0
DWIDTH 6 0
BBX 6 10 0 -2
BITMAP 
20
20
20
3C
20
3C
20
20
20
20
ENDCHAR
STARTCHAR SF370000
ENCODING 265
SWIDTH 321 0
DWIDTH 6 0
BBX 6 10 0 -2
BITMAP 
50
50
50
50
5C
50
50
50
50
50
ENDCHAR
STARTCHAR SF450000
ENCODING 266
SWIDTH 321 0
DWIDTH 6 0
BBX 6 10 0 -2
BITMAP 
20
20
20
FC
00
FC
00
00
00
00
ENDCHAR
STARTCHAR SF460000
ENCODING 267
SWIDTH 321 0
DWIDTH 6 0
BBX 6 10 0 -2
BITMAP 
50
50
50
50
FC
00
00
00
00
00
ENDCHAR
STARTCHAR SF470000
ENCODING 268
SWIDTH 321 0
DWIDTH 6 0
BBX 6 10 0 -2
BITMAP 
00
00
00
FC
00
FC
20
20
20
20
ENDCHAR
STARTCHAR SF480000
ENCODING 269
SWIDTH 321 0
DWIDTH 6 0
BBX 6 10 0 -2
BITMAP 
00
00
00
00
FC
50
50
50
50
50
ENDCHAR
STARTCHAR SF490000
ENCODING 270
SWIDTH 321 0
DWIDTH 6 0
BBX 6 10 0 -2
BITMAP 
50
50
50
50
7C
00
00
00
00
00
ENDCHAR
STARTCHAR SF500000
ENCODING 271
SWIDTH 321 0
DWIDTH 6 0
BBX 6 10 0 -2
BITMAP 
20
20
20
3C
20
3C
00
00
00
00
ENDCHAR
STARTCHAR SF510000
ENCODING 272
SWIDTH 321 0
DWIDTH 6 0
BBX 6 10 0 -2
BITMAP 
00
00
00
3C
20
3C
20
20
20
20
ENDCHAR
STARTCHAR SF520000
ENCODING 273
SWIDTH 321 0
DWIDTH 6 0
BBX 6 10 0 -2
BITMAP 
00
00
00
00
7C
50
50
50
50
50
ENDCHAR
STARTCHAR SF530000
ENCODING 274
SWIDTH 321 0
DWIDTH 6 0
BBX 6 10 0 -2
BITMAP 
50
50
50
50
FC
50
50
50
50
50
ENDCHAR
STARTCHAR SF540000
ENCODING 275
SWIDTH 321 0
DWIDTH 6 0
BBX 6 10 0 -2
BITMAP 
20
20
20
FC
20
FC
20
20
20
20
ENDCHAR
STARTCHAR lfblock
ENCODING 276
SWIDTH 321 0
DWIDTH 6 0
BBX 6 10 0 -2
BITMAP 
E0
E0
E0
E0
E0
E0
E0
E0
E0
E0
ENDCHAR
STARTCHAR rtblock
ENCODING 277
SWIDTH 321 0
DWIDTH 6 0
BBX 6 10 0 -2
BITMAP 
1C
1C
1C
1C
1C
1C
1C
1C
1C
1C
ENDCHAR
STARTCHAR alpha
ENCODING 278
SWIDTH 321 0
DWIDTH 6 0
BBX 6 10 0 -2
BITMAP 
00
00
00
68
90
90
90
68
00
00
ENDCHAR
STARTCHAR Gamma
ENCODING 279
SWIDTH 321 0
DWIDTH 6 0
BBX 6 10 0 -2
BITMAP 
00
F8
48
40
40
40
40
E0
00
00
ENDCHAR
STARTCHAR pi
ENCODING 280
SWIDTH 321 0
DWIDTH 6 0
BBX 6 10 0 -2
BITMAP 
00
00
00
F8
50
50
50
D8
00
00
ENDCHAR
STARTCHAR Sigma
ENCODING 281
SWIDTH 321 0
DWIDTH 6 0
BBX 6 10 0 -2
BITMAP 
00
F8
40
20
10
20
40
F8
00
00
ENDCHAR
STARTCHAR sigma
ENCODING 282
SWIDTH 321 0
DWIDTH 6 0
BBX 6 10 0 -2
BITMAP 
00
00
00
78
90
90
90
60
00
00
ENDCHAR
STARTCHAR tau
ENCODING 283
SWIDTH 321 0
DWIDTH 6 0
BBX 6 10 0 -2
BITMAP 
00
00
00
78
A0
20
20
30
00
00
ENDCHAR
STARTCHAR Phi
ENCODING 284
SWIDTH 321 0
DWIDTH 6 0
BBX 6 10 0 -2
BITMAP 
70
20
70
A8
A8
70
20
70
00
00
ENDCHAR
STARTCHAR Theta
ENCODING 285
SWIDTH 321 0
DWIDTH 6 0
BBX 6 10 0 -2
BITMAP 
00
70
88
A8
A8
88
88
70
00
00
ENDCHAR
STARTCHAR uni03A9
ENCODING 286
SWIDTH 321 0
DWIDTH 6 0
BBX 6 10 0 -2
BITMAP 
00
70
88
88
88
88
50
D8
00
00
ENDCHAR
STARTCHAR delta
ENCODING 287
SWIDTH 321 0
DWIDTH 6 0
BBX 6 10 0 -2
BITMAP 
38
20
10
78
88
88
88
70
00
00
ENDCHAR
STARTCHAR infinity
ENCODING 288
SWIDTH 321 0
DWIDTH 6 0
BBX 6 10 0 -2
BITMAP 
00
00
50
A8
A8
A8
50
00
00
00
ENDCHAR
STARTCHAR phi1
ENCODING 289
SWIDTH 321 0
DWIDTH 6 0
BBX 6 10 0 -2
BITMAP 
00
20
20
70
A8
A8
A8
70
20
20
ENDCHAR
STARTCHAR epsilon
ENCODING 290
SWIDTH 321 0
DWIDTH 6 0
BBX 6 10 0 -2
BITMAP 
00
70
88
80
40
80
88
70
00
00
ENDCHAR
STARTCHAR intersection
ENCODING 291
SWIDTH 321 0
DWIDTH 6 0
BBX 6 10 0 -2
BITMAP 
00
70
88
88
88
88
88
88
00
00
ENDCHAR
STARTCHAR equivalence
ENCODING 292
SWIDTH 321 0
DWIDTH 6 0
BBX 6 10 0 -2
BITMAP 
00
00
F8
00
F8
00
F8
00
00
00
ENDCHAR
STARTCHAR greaterequal
ENCODING 293
SWIDTH 321 0
DWIDTH 6 0
BBX 6 10 0 -2
BITMAP 
80
40
20
10
20
40
80
00
F0
00
ENDCHAR
STARTCHAR lessequal
ENCODING 294
SWIDTH 321 0
DWIDTH 6 0
BBX 6 10 0 -2
BITMAP 
10
20
40
80
40
20
10
00
F0
00
ENDCHAR
STARTCHAR integraltp
ENCODING 295
SWIDTH 321 0
DWIDTH 6 0
BBX 6 10 0 -2
BITMAP 
00
10
28
20
20
20
20
20
20
20
ENDCHAR
STARTCHAR integralbt
ENCODING 296
SWIDTH 321 0
DWIDTH 6 0
BBX 6 10 0 -2
BITMAP 
20
20
20
20
20
20
20
20
A0
40
ENDCHAR
STARTCHAR approxequal
ENCODING 297
SWIDTH 321 0
DWIDTH 6 0
BBX 6 10 0 -2
BITMAP 
00
00
48
B0
00
48
B0
00
00
00
ENDCHAR
STARTCHAR uni2219
ENCODING 298
SWIDTH 321 0
DWIDTH 6 0
BBX 6 10 0 -2
BITMAP 
00
00
00
00
70
70
70
00
00
00
ENDCHAR
STARTCHAR radical
ENCODING 299
SWIDTH 321 0
DWIDTH 6 0
BBX 6 10 0 -2
BITMAP 
3C
20
20
20
20
20
A0
60
20
00
ENDCHAR
STARTCHAR uni207F
ENCODING 300
SWIDTH 321 0
DWIDTH 6 0
BBX 6 10 0 -2
BITMAP 
70
48
48
48
00
00
00
00
00
00
ENDCHAR
STARTCHAR uni02C9
ENCODING 301
SWIDTH 321 0
DWIDTH 6 0
BBX 6 10 0 -2
BITMAP 
78
00
00
00
00
00
00
00
00
00
ENDCHAR
STARTCHAR breve
ENCODING 302
SWIDTH 321 0
DWIDTH 6 0
BBX 6 10 0 -2
BITMAP 
48
30
00
00
00
00
00
00
00
00
ENDCHAR
STARTCHAR dotaccent
ENCODING 303
SWIDTH 321 0
DWIDTH 6 0
BBX 6 10 0 -2
BITMAP 
30
30
00
00
00
00
00
00
00
00
ENDCHAR
STARTCHAR ring
ENCODING 304
SWIDTH 321 0
DWIDTH 6 0
BBX 6 10 0 -2
BITMAP 
30
48
30
00
00
00
00
00
00
00
ENDCHAR
STARTCHAR hungarumlaut
ENCODING 305
SWIDTH 321 0
DWIDTH 6 0
BBX 6 10 0 -2
BITMAP 
48
90
00
00
00
00
00
00
00
00
ENDCHAR
STARTCHAR ogonek
ENCODING 306
SWIDTH 321 0
DWIDTH 6 0
BBX 6 10 0 -2
BITMAP 
00
00
00
00
00
00
00
20
40
20
ENDCHAR
STARTCHAR caron
ENCODING 307
SWIDTH 321 0
DWIDTH 6 0
BBX 6 10 0 -2
BITMAP 
88
50
20
00
00
00
00
00
00
00
ENDCHAR
STARTCHAR quoteleft
ENCODING 308
SWIDTH 321 0
DWIDTH 6 0
BBX 6 10 0 -2
BITMAP 
10
20
30
30
00
00
00
00
00
00
ENDCHAR
STARTCHAR quoteright
ENCODING 309
SWIDTH 321 0
DWIDTH 6 0
BBX 6 10 0 -2
BITMAP 
30
30
10
20
00
00
00
00
00
00
ENDCHAR
STARTCHAR quotedblleft
ENCODING 310
SWIDTH 321 0
DWIDTH 6 0
BBX 6 10 0 -2
BITMAP 
48
90
D8
D8
00
00
00
00
00
00
ENDCHAR
STARTCHAR quotedblright
ENCODING 311
SWIDTH 321 0
DWIDTH 6 0
BBX 6 10 0 -2
BITMAP 
D8
D8
48
90
00
00
00
00
00
00
ENDCHAR
STARTCHAR endash
ENCODING 312
SWIDTH 321 0
DWIDTH 6 0
BBX 6 10 0 -2
BITMAP 
00
00
00
00
00
78
00
00
00
00
ENDCHAR
STARTCHAR emdash
ENCODING 313
SWIDTH 321 0
DWIDTH 6 0
BBX 6 10 0 -2
BITMAP 
00
00
00
00
00
F8
00
00
00
00
ENDCHAR
STARTCHAR uniFFE5
ENCODING 314
SWIDTH 321 0
DWIDTH 6 0
BBX 6 10 0 -2
BITMAP 
20
50
88
00
00
00
00
00
00
00
ENDCHAR
STARTCHAR dotlessi
ENCODING 315
SWIDTH 321 0
DWIDTH 6 0
BBX 6 10 0 -2
BITMAP 
48
B0
00
00
00
00
00
00
00
00
ENDCHAR
STARTCHAR quotesinglbase
ENCODING 316
SWIDTH 321 0
DWIDTH 6 0
BBX 6 10 0 -2
BITMAP 
00
00
00
00
00
00
30
30
10
20
ENDCHAR
STARTCHAR quotedblbase
ENCODING 317
SWIDTH 321 0
DWIDTH 6 0
BBX 6 10 0 -2
BITMAP 
00
00
00
00
00
00
D8
D8
48
90
ENDCHAR
STARTCHAR ellipsis
ENCODING 318
SWIDTH 321 0
DWIDTH 6 0
BBX 6 10 0 -2
BITMAP 
00
00
00
00
00
00
A8
A8
00
00
ENDCHAR
STARTCHAR dagger
ENCODING 319
SWIDTH 321 0
DWIDTH 6 0
BBX 6 10 0 -2
BITMAP 
20
20
F8
20
20
20
20
20
20
00
ENDCHAR
STARTCHAR daggerdbl
ENCODING 320
SWIDTH 321 0
DWIDTH 6 0
BBX 6 10 0 -2
BITMAP 
20
20
F8
20
20
20
F8
20
20
00
ENDCHAR
STARTCHAR circumflex
ENCODING 321
SWIDTH 321 0
DWIDTH 6 0
BBX 6 10 0 -2
BITMAP 
20
50
88
00
00
00
00
00
00
00
ENDCHAR
STARTCHAR perthousand
ENCODING 322
SWIDTH 321 0
DWIDTH 6 0
BBX 6 10 0 -2
BITMAP 
48
A8
50
10
20
68
D4
A8
00
00
ENDCHAR
STARTCHAR Scaron
ENCODING 323
SWIDTH 321 0
DWIDTH 6 0
BBX 6 10 0 -2
BITMAP 
88
50
20
70
08
70
80
70
00
00
ENDCHAR
STARTCHAR guilsinglleft
ENCODING 324
SWIDTH 321 0
DWIDTH 6 0
BBX 6 10 0 -2
BITMAP 
00
08
10
20
40
20
10
08
00
00
ENDCHAR
STARTCHAR OE
ENCODING 325
SWIDTH 321 0
DWIDTH 6 0
BBX 6 10 0 -2
BITMAP 
78
A0
A0
B8
A0
A0
A0
78
00
00
ENDCHAR
STARTCHAR tilde
ENCODING 326
SWIDTH 321 0
DWIDTH 6 0
BBX 6 10 0 -2
BITMAP 
48
B0
00
00
00
00
00
00
00
00
ENDCHAR
STARTCHAR trademark
ENCODING 327
SWIDTH 321 0
DWIDTH 6 0
BBX 6 10 0 -2
BITMAP 
E0
5C
54
54
54
00
00
00
00
00
ENDCHAR
STARTCHAR scaron
ENCODING 328
SWIDTH 321 0
DWIDTH 6 0
BBX 6 10 0 -2
BITMAP 
88
50
20
F0
08
70
80
78
00
00
ENDCHAR
STARTCHAR guilsinglright
ENCODING 329
SWIDTH 321 0
DWIDTH 6 0
BBX 6 10 0 -2
BITMAP 
00
40
20
10
08
10
20
40
00
00
ENDCHAR
STARTCHAR oe
ENCODING 330
SWIDTH 321 0
DWIDTH 6 0
BBX 6 10 0 -2
BITMAP 
00
00
70
A8
A8
B8
A0
78
00
00
ENDCHAR
ENDFONT
